# xmcd CD database file
#
# Track frame offsets:
#	150
#	14217
#	27409
#	39786
#	53091
#	64919
#	77170
#	89947
#	100694
#	114765
#	128356
#	142074
#	153071
#	166815
#	191438
#	208257
#	232852
#	246606
#
# Disc length: 3478 seconds
#
# Revision: 0
# Processed by: cddbd v1.5.1PL2 Copyright (c) Steve Scherf et al.
# Submitted via: CDex 1.51
#
DISCID=ee0d9412
DTITLE=Joe Williams and Count Basie - Every Day I Have The Blues (1946-55)
DYEAR=2002
DGENRE=Jazz
TTITLE0=Louella
TTITLE1=Now You Tell Me
TTITLE2=It's Raining Again
TTITLE3=Detour Ahead
TTITLE4=Every Day
TTITLE5=They Didn't Belive Me
TTITLE6=Blow Mr. Low
TTITLE7=Time For Moving
TTITLE8=When The Sun Goes Down
TTITLE9=Kansas City Blues
TTITLE10=Always On The Blue Side
TTITLE11=Safe, Sane And Single
TTITLE12=All Right, Okay, You Win
TTITLE13=The Comeback
TTITLE14=Ev'ry Day (I Fall In Love)
TTITLE15=Every Day I Have The Blues
TTITLE16=Teach Me Tonight
TTITLE17=Roll 'em Pete
EXTD=YEAR: 2002
EXTT0=
EXTT1=
EXTT2=
EXTT3=
EXTT4=
EXTT5=
EXTT6=
EXTT7=
EXTT8=
EXTT9=
EXTT10=
EXTT11=
EXTT12=
EXTT13=
EXTT14=
EXTT15=
EXTT16=
EXTT17=
PLAYORDER=
